<svg xmlns="http://www.w3.org/2000/svg" xmlns:xlink="http://www.w3.org/1999/xlink" width="150" zoomAndPan="magnify" viewBox="0 0 112.5 112.499997" height="150" preserveAspectRatio="xMidYMid meet" version="1.0"><path fill="#fff7d3" d="M 60.671875 60.191406 C 75.28125 73.042969 47.957031 78.75 54.265625 61.527344 C 47.957031 78.75 34.089844 54.472656 51.011719 55.832031 C 34.089844 54.472656 52.851562 33.75 55.414062 50.972656 C 52.851562 33.75 78.316406 45.21875 61.382812 53.660156 C 78.304688 45.230469 75.28125 73.042969 60.671875 60.191406 Z M 60.671875 60.191406 " fill-opacity="1" fill-rule="nonzero"/><path fill="#ffda7b" d="M 60.496094 56.742188 C 60.496094 57.238281 60.402344 57.714844 60.210938 58.171875 C 60.023438 58.628906 59.753906 59.03125 59.40625 59.382812 C 59.054688 59.734375 58.652344 60.003906 58.195312 60.191406 C 57.742188 60.382812 57.265625 60.476562 56.773438 60.476562 C 56.277344 60.476562 55.804688 60.382812 55.347656 60.191406 C 54.890625 60.003906 54.488281 59.734375 54.136719 59.382812 C 53.789062 59.03125 53.519531 58.628906 53.332031 58.171875 C 53.140625 57.714844 53.046875 57.238281 53.046875 56.742188 C 53.046875 56.25 53.140625 55.773438 53.332031 55.316406 C 53.519531 54.859375 53.789062 54.457031 54.136719 54.105469 C 54.488281 53.753906 54.890625 53.484375 55.347656 53.296875 C 55.804688 53.105469 56.277344 53.011719 56.773438 53.011719 C 57.265625 53.011719 57.742188 53.105469 58.195312 53.296875 C 58.652344 53.484375 59.054688 53.753906 59.40625 54.105469 C 59.753906 54.457031 60.023438 54.859375 60.210938 55.316406 C 60.402344 55.773438 60.496094 56.25 60.496094 56.742188 Z M 60.496094 56.742188 " fill-opacity="1" fill-rule="nonzero"/></svg>